<svg width="109" height="44" viewBox="0 0 109 44" fill="none" xmlns="http://www.w3.org/2000/svg">
<path d="M20.9575 11.6647C19.7976 10.7813 18.4976 10.1924 17.0926 9.91979C15.7619 9.66242 14.416 9.53155 13.0875 9.53155C11.4768 9.53155 9.99951 9.82382 8.69295 10.3975C8.15238 10.6352 7.67747 10.8904 7.26821 11.1652V0H0.998047V34.4226H7.12814V21.9531C7.12814 20.6444 7.26383 19.5582 7.53302 18.7294C7.78689 17.942 8.15238 17.3073 8.61635 16.8449C9.07594 16.3869 9.64058 16.0771 10.3431 15.8939C11.1157 15.6954 12.0239 15.5929 13.0394 15.5929C14.0199 15.5929 14.8843 15.6933 15.6065 15.8896C16.2543 16.0662 16.7687 16.3694 17.1801 16.8165C17.5981 17.2702 17.9198 17.9289 18.1343 18.7708C18.3663 19.6804 18.4845 20.8778 18.4845 22.3261V34.4205H24.8487V21.9989C24.8487 19.3118 24.4942 17.1263 23.7961 15.5013C23.087 13.8524 22.1306 12.5611 20.9575 11.6647Z" fill="#DCDCDC"/>
<path d="M43.2367 21.9532C43.2367 23.2619 43.101 24.3459 42.8318 25.1769C42.578 25.9643 42.2125 26.599 41.7485 27.0614C41.2889 27.5194 40.7243 27.8313 40.0217 28.0124C39.2514 28.2109 38.3453 28.3134 37.3255 28.3134C36.3428 28.3134 35.4783 28.213 34.7583 28.0167C34.1105 27.8401 33.5962 27.5369 33.1848 27.0898C32.7667 26.6339 32.445 25.9774 32.2306 25.1355C31.9986 24.2281 31.8804 23.0328 31.8804 21.5802V9.48364H25.5161V21.9052C25.5161 24.5596 25.8707 26.7364 26.5666 28.3744C27.2779 30.0452 28.2343 31.3451 29.4073 32.2394C30.5673 33.1249 31.876 33.7117 33.2964 33.9843C34.6358 34.2417 35.9751 34.3726 37.2751 34.3726C38.8859 34.3726 40.3653 34.0803 41.6697 33.5066C42.2103 33.2689 42.6852 33.0137 43.0945 32.7389V37.7948H27.8119V43.9041H49.3668V9.48364H43.2367V21.9532Z" fill="#DCDCDC"/>
<path d="M70.9107 11.6691C69.7596 10.7792 68.4552 10.199 67.0304 9.94164C65.6911 9.69954 64.3539 9.57739 63.0604 9.57739C61.3731 9.57739 59.8389 9.8304 58.4995 10.3321C57.878 10.5633 57.333 10.8359 56.8669 11.1478V9.57739H50.9709V44H57.0551V32.97C57.4994 33.247 58.0202 33.4935 58.6221 33.716C59.9746 34.2155 61.4694 34.4685 63.0626 34.4685C64.3933 34.4685 65.7414 34.3376 67.0677 34.0802C68.4705 33.8076 69.7705 33.2209 70.9326 32.3353C72.1079 31.4411 73.0621 30.1389 73.7733 28.4704C74.4715 26.8323 74.8238 24.6556 74.8238 22.0011C74.8238 19.3118 74.4605 17.1241 73.7449 15.497C73.0183 13.8502 72.0641 12.5612 70.9107 11.6691ZM62.5921 15.593C63.5419 15.593 64.4042 15.6518 65.1571 15.7696C65.8027 15.87 66.3345 16.1055 66.7788 16.4872C67.2165 16.8624 67.5645 17.4687 67.8118 18.291C68.0831 19.1896 68.221 20.4678 68.221 22.0906C68.221 23.5345 68.105 24.6948 67.8752 25.5389C67.6629 26.3154 67.3544 26.9174 66.9582 27.3253C66.5709 27.7222 66.0806 27.9818 65.4569 28.1192C64.739 28.2762 63.8702 28.3569 62.8722 28.3569C61.7232 28.3569 60.7493 28.2632 59.9746 28.0756C59.2786 27.9098 58.7031 27.6154 58.2675 27.2053C57.8386 26.8018 57.5147 26.2042 57.3068 25.4255C57.077 24.5683 56.961 23.445 56.961 22.0906C56.961 20.5594 57.0989 19.338 57.3702 18.4568C57.6219 17.641 57.9765 17.0172 58.4251 16.6094C58.8759 16.1971 59.41 15.9354 60.0599 15.8089C60.7997 15.6671 61.651 15.593 62.5921 15.593Z" fill="#DCDCDC"/>
<path d="M75.4893 34.4227H81.5734V15.6409H91.7939V9.57739H75.4893V34.4227Z" fill="#DCDCDC"/>
<path d="M92.6934 9.57739V34.4227H98.7775V15.6409H108.998V9.57739H92.6934Z" fill="#DCDCDC"/>
</svg>
