<svg width="135" height="56" viewBox="0 0 135 56" fill="none" xmlns="http://www.w3.org/2000/svg">
<path d="M24.9493 14.6304C23.4994 13.5224 21.8744 12.7838 20.1181 12.4418C18.4549 12.119 16.7724 11.9549 15.1119 11.9549C13.0984 11.9549 11.2518 12.3215 9.61863 13.041C8.94292 13.3391 8.34927 13.6592 7.8377 14.0039V0H0V43.1744H7.66262V27.5346C7.66262 25.8931 7.83223 24.5308 8.16872 23.4912C8.48606 22.5036 8.94292 21.7076 9.52288 21.1276C10.0974 20.5531 10.8032 20.1646 11.6813 19.9349C12.647 19.6859 13.7823 19.5573 15.0517 19.5573C16.2773 19.5573 17.3578 19.6832 18.2606 19.9294C19.0704 20.151 19.7133 20.5312 20.2276 21.092C20.7501 21.6611 21.1522 22.4872 21.4203 23.5432C21.7103 24.684 21.858 26.1859 21.858 28.0024V43.1717H29.8134V27.592C29.8134 24.2217 29.3702 21.4805 28.4975 19.4424C27.6111 17.3743 26.4157 15.7547 24.9493 14.6304Z" fill="#333333"/>
<path d="M52.7987 27.5346C52.7987 29.176 52.6291 30.5356 52.2926 31.5779C51.9753 32.5655 51.5184 33.3616 50.9384 33.9416C50.3639 34.5161 49.6581 34.9073 48.78 35.1343C47.817 35.3833 46.6845 35.5118 45.4096 35.5118C44.1813 35.5118 43.1007 35.386 42.2007 35.1398C41.3909 34.9182 40.7481 34.5379 40.2338 33.9771C39.7112 33.4054 39.3091 32.5819 39.041 31.526C38.751 30.3879 38.6033 28.8888 38.6033 27.0668V11.8948H30.6479V27.4744C30.6479 30.8037 31.0911 33.5339 31.9611 35.5884C32.8502 37.684 34.0457 39.3144 35.512 40.436C36.9619 41.5467 38.5978 42.2826 40.3733 42.6246C42.0475 42.9474 43.7217 43.1115 45.3467 43.1115C47.3602 43.1115 49.2095 42.745 50.84 42.0255C51.5157 41.7273 52.1093 41.4072 52.6209 41.0625V47.4038H33.5177V55.0664H60.4613V11.8948H52.7987V27.5346Z" fill="#333333"/>
<path d="M87.391 14.636C85.9521 13.5198 84.3216 12.7921 82.5407 12.4693C80.8664 12.1656 79.1949 12.0125 77.5782 12.0125C75.469 12.0125 73.5513 12.3298 71.877 12.959C71.1001 13.249 70.4189 13.5909 69.8362 13.9821V12.0125H62.4663V55.1868H70.0715V41.3525C70.6268 41.7 71.2779 42.0091 72.0302 42.2881C73.7209 42.9146 75.5893 43.2319 77.5809 43.2319C79.2442 43.2319 80.9294 43.0678 82.5872 42.745C84.3408 42.403 85.9657 41.6671 87.4184 40.5565C88.8874 39.4348 90.0802 37.8016 90.9693 35.7088C91.842 33.6544 92.2824 30.9242 92.2824 27.5948C92.2824 24.2218 91.8283 21.4779 90.9337 19.4371C90.0255 17.3716 88.8327 15.7549 87.391 14.636ZM76.9927 19.5574C78.18 19.5574 79.2579 19.6313 80.1989 19.779C81.006 19.9049 81.6707 20.2003 82.2261 20.6791C82.7732 21.1496 83.2082 21.9101 83.5173 22.9415C83.8565 24.0686 84.0289 25.6717 84.0289 27.707C84.0289 29.518 83.8839 30.9734 83.5966 32.0321C83.3313 33.006 82.9456 33.761 82.4504 34.2726C81.9662 34.7705 81.3534 35.0961 80.5737 35.2684C79.6764 35.4654 78.5904 35.5666 77.3429 35.5666C75.9067 35.5666 74.6893 35.449 73.7209 35.2137C72.8509 35.0058 72.1314 34.6365 71.587 34.1222C71.0508 33.6161 70.646 32.8665 70.3861 31.8899C70.0988 30.8147 69.9538 29.4059 69.9538 27.707C69.9538 25.7866 70.1262 24.2546 70.4654 23.1494C70.78 22.1262 71.2232 21.3438 71.784 20.8323C72.3476 20.3152 73.0151 19.9869 73.8276 19.8283C74.7522 19.6505 75.8164 19.5574 76.9927 19.5574Z" fill="#333333"/>
<path d="M93.1143 43.1745H100.719V19.6176H113.495V12.0125H93.1143V43.1745Z" fill="#333333"/>
<path d="M114.619 12.0125V43.1745H122.224V19.6176H135V12.0125H114.619Z" fill="#333333"/>
</svg>
